<?xml version="1.0" encoding="UTF-8"?>
<svg version="1.1" xmlns="http://www.w3.org/2000/svg" width="1536" height="1024">
<path d="M0 0 C506.88 0 1013.76 0 1536 0 C1536 337.92 1536 675.84 1536 1024 C1029.12 1024 522.24 1024 0 1024 C0 686.08 0 348.16 0 0 Z " fill="#030C18" transform="translate(0,0)"/>
<path d="M0 0 C24.09 0 48.18 0 73 0 C73 24.09 73 48.18 73 73 C48.91 73 24.82 73 0 73 C0 48.91 0 24.82 0 0 Z " fill="#030B17" transform="translate(1416,657)"/>
<path d="M0 0 C24.09 0 48.18 0 73 0 C73 23.76 73 47.52 73 72 C48.91 72 24.82 72 0 72 C0 48.24 0 24.48 0 0 Z " fill="#030B17" transform="translate(1342,878)"/>
<path d="M0 0 C24.09 0 48.18 0 73 0 C73 23.76 73 47.52 73 72 C48.91 72 24.82 72 0 72 C0 48.24 0 24.48 0 0 Z " fill="#030B17" transform="translate(819,584)"/>
<path d="M0 0 C24.09 0 48.18 0 73 0 C73 23.76 73 47.52 73 72 C48.91 72 24.82 72 0 72 C0 48.24 0 24.48 0 0 Z " fill="#030B17" transform="translate(745,584)"/>
<path d="M0 0 C24.09 0 48.18 0 73 0 C73 23.76 73 47.52 73 72 C48.91 72 24.82 72 0 72 C0 48.24 0 24.48 0 0 Z " fill="#030B17" transform="translate(596,584)"/>
<path d="M0 0 C24.09 0 48.18 0 73 0 C73 23.76 73 47.52 73 72 C48.91 72 24.82 72 0 72 C0 48.24 0 24.48 0 0 Z " fill="#030B17" transform="translate(521,584)"/>
<path d="M0 0 C24.09 0 48.18 0 73 0 C73 23.76 73 47.52 73 72 C48.91 72 24.82 72 0 72 C0 48.24 0 24.48 0 0 Z " fill="#030B17" transform="translate(446,584)"/>
<path d="M0 0 C24.09 0 48.18 0 73 0 C73 23.76 73 47.52 73 72 C48.91 72 24.82 72 0 72 C0 48.24 0 24.48 0 0 Z " fill="#030B17" transform="translate(371,584)"/>
<path d="M0 0 C24.09 0 48.18 0 73 0 C73 23.76 73 47.52 73 72 C48.91 72 24.82 72 0 72 C0 48.24 0 24.48 0 0 Z " fill="#030B17" transform="translate(1192,364)"/>
<path d="M0 0 C24.09 0 48.18 0 73 0 C73 23.43 73 46.86 73 71 C48.91 71 24.82 71 0 71 C0 47.57 0 24.14 0 0 Z " fill="#030B17" transform="translate(1342,73)"/>
<path d="M0 0 C24.09 0 48.18 0 73 0 C73 23.43 73 46.86 73 71 C48.91 71 24.82 71 0 71 C0 47.57 0 24.14 0 0 Z " fill="#030B17" transform="translate(745,73)"/>
<path d="M0 0 C24.09 0 48.18 0 73 0 C73 23.43 73 46.86 73 71 C48.91 71 24.82 71 0 71 C0 47.57 0 24.14 0 0 Z " fill="#030B17" transform="translate(596,73)"/>
<path d="M0 0 C24.09 0 48.18 0 73 0 C73 23.43 73 46.86 73 71 C48.91 71 24.82 71 0 71 C0 47.57 0 24.14 0 0 Z " fill="#030B17" transform="translate(521,73)"/>
<path d="M0 0 C24.09 0 48.18 0 73 0 C73 23.43 73 46.86 73 71 C48.91 71 24.82 71 0 71 C0 47.57 0 24.14 0 0 Z " fill="#030B17" transform="translate(446,73)"/>
<path d="M0 0 C24.09 0 48.18 0 73 0 C73 23.43 73 46.86 73 71 C48.91 71 24.82 71 0 71 C0 47.57 0 24.14 0 0 Z " fill="#030B17" transform="translate(222,73)"/>
<path d="M0 0 C24.09 0 48.18 0 73 0 C73 23.43 73 46.86 73 71 C48.91 71 24.82 71 0 71 C0 47.57 0 24.14 0 0 Z " fill="#030B17" transform="translate(147,73)"/>
<path d="M0 0 C23.43 0 46.86 0 71 0 C71 23.76 71 47.52 71 72 C47.57 72 24.14 72 0 72 C0 48.24 0 24.48 0 0 Z " fill="#030B17" transform="translate(0,584)"/>
<path d="M0 0 C23.43 0 46.86 0 71 0 C71 23.76 71 47.52 71 72 C47.57 72 24.14 72 0 72 C0 48.24 0 24.48 0 0 Z " fill="#030B17" transform="translate(0,364)"/>
<path d="M0 0 C1.24132187 0.00222061 2.48264374 0.00444122 3.76158142 0.00672913 C4.45555495 0.00660859 5.14952848 0.00648806 5.86453152 0.00636387 C8.12053014 0.00711282 10.3764471 0.01474023 12.63243103 0.02259827 C14.02138733 0.02406774 15.41034418 0.02508842 16.79930115 0.02565002 C21.96113411 0.03090228 27.12295524 0.04486337 32.28477478 0.05775452 C43.81414978 0.07837952 55.34352478 0.09900452 67.22227478 0.12025452 C67.22227478 23.88025452 67.22227478 47.64025452 67.22227478 72.12025452 C43.79227478 72.12025452 20.36227478 72.12025452 -3.77772522 72.12025452 C-3.79835022 60.42587952 -3.81897522 48.73150452 -3.84022522 36.68275452 C-3.84932922 32.9851593 -3.85843323 29.28756409 -3.86781311 25.47792053 C-3.87232971 20.9756012 -3.87232971 20.9756012 -3.87316895 18.87036133 C-3.87470827 17.39456888 -3.87823298 15.91877772 -3.88330078 14.44299316 C-3.89058002 12.21242576 -3.89163258 9.98193546 -3.89125061 7.75135803 C-3.89347122 6.49227127 -3.89569183 5.23318451 -3.89797974 3.9359436 C-3.73678976 0.16177477 -3.73678976 0.16177477 0 0 Z " fill="#030B17" transform="translate(3.7777252197265625,510.87974548339844)"/>
<path d="M0 0 C1.24132187 0.00222061 2.48264374 0.00444122 3.76158142 0.00672913 C4.45555495 0.00660859 5.14952848 0.00648806 5.86453152 0.00636387 C8.12053014 0.00711282 10.3764471 0.01474023 12.63243103 0.02259827 C14.02138733 0.02406774 15.41034418 0.02508842 16.79930115 0.02565002 C21.96113411 0.03090228 27.12295524 0.04486337 32.28477478 0.05775452 C43.81414978 0.07837952 55.34352478 0.09900452 67.22227478 0.12025452 C67.22227478 23.88025452 67.22227478 47.64025452 67.22227478 72.12025452 C43.79227478 72.12025452 20.36227478 72.12025452 -3.77772522 72.12025452 C-3.79835022 60.42587952 -3.81897522 48.73150452 -3.84022522 36.68275452 C-3.84932922 32.9851593 -3.85843323 29.28756409 -3.86781311 25.47792053 C-3.87232971 20.9756012 -3.87232971 20.9756012 -3.87316895 18.87036133 C-3.87470827 17.39456888 -3.87823298 15.91877772 -3.88330078 14.44299316 C-3.89058002 12.21242576 -3.89163258 9.98193546 -3.89125061 7.75135803 C-3.89347122 6.49227127 -3.89569183 5.23318451 -3.89797974 3.9359436 C-3.73678976 0.16177477 -3.73678976 0.16177477 0 0 Z " fill="#030B17" transform="translate(3.7777252197265625,290.87974548339844)"/>
<path d="M0 0 C23.43 0 46.86 0 71 0 C71 23.43 71 46.86 71 71 C47.57 71 24.14 71 0 71 C0 47.57 0 24.14 0 0 Z " fill="#030B17" transform="translate(0,219)"/>
<path d="M0 0 C23.43 0 46.86 0 71 0 C71 23.43 71 46.86 71 71 C47.57 71 24.14 71 0 71 C0 47.57 0 24.14 0 0 Z " fill="#030B17" transform="translate(0,73)"/>
<path d="M0 0 C23.1 0 46.2 0 70 0 C70 23.43 70 46.86 70 71 C46.9 71 23.8 71 0 71 C0 47.57 0 24.14 0 0 Z " fill="#030B17" transform="translate(1,146)"/>
<path d="M0 0 C15.18 0 30.36 0 46 0 C46 24.09 46 48.18 46 73 C30.82 73 15.64 73 0 73 C0 48.91 0 24.82 0 0 Z " fill="#030C17" transform="translate(1490,657)"/>
<path d="M0 0 C15.18 0 30.36 0 46 0 C46 23.76 46 47.52 46 72 C30.82 72 15.64 72 0 72 C0 48.24 0 24.48 0 0 Z " fill="#030B17" transform="translate(1490,584)"/>
<path d="M0 0 C15.18 0 30.36 0 46 0 C46 23.76 46 47.52 46 72 C30.82 72 15.64 72 0 72 C0 48.24 0 24.48 0 0 Z " fill="#030C17" transform="translate(1490,364)"/>
<path d="M0 0 C0.79719955 0.00222061 1.59439911 0.00444122 2.41575623 0.00672913 C3.32925842 0.00684998 4.24276062 0.00697083 5.1839447 0.00709534 C6.15045959 0.0122113 7.11697449 0.01732727 8.11277771 0.02259827 C9.4381958 0.02410889 9.4381958 0.02410889 10.79039001 0.02565002 C14.10489695 0.03089921 17.41938545 0.04486035 20.73387146 0.05775452 C28.13824646 0.07837952 35.54262146 0.09900452 43.17137146 0.12025452 C43.17137146 23.88025452 43.17137146 47.64025452 43.17137146 72.12025452 C27.99137146 72.12025452 12.81137146 72.12025452 -2.82862854 72.12025452 C-2.86873735 54.44118267 -2.86873735 54.44118267 -2.87745667 46.93080139 C-2.8834447 41.79724602 -2.89054392 36.6637084 -2.90406799 31.53016663 C-2.91489829 27.39346051 -2.92090568 23.25677344 -2.92350578 19.12005424 C-2.92535978 17.53833148 -2.9289799 15.9566098 -2.9343586 14.3748951 C-2.94157094 12.16702614 -2.9426194 9.95923679 -2.94215393 7.75135803 C-2.94437454 6.49227127 -2.94659515 5.23318451 -2.94888306 3.9359436 C-2.78861604 0.18338534 -2.78861604 0.18338534 0 0 Z " fill="#030C17" transform="translate(1492.828628540039,144.87974548339844)"/>
<path d="M0 0 C14.85 0 29.7 0 45 0 C45 24.09 45 48.18 45 73 C30.15 73 15.3 73 0 73 C0 48.91 0 24.82 0 0 Z " fill="#030B17" transform="translate(1491,804)"/>
<path d="M0 0 C15.18 0 30.36 0 46 0 C46 23.43 46 46.86 46 71 C30.82 71 15.64 71 0 71 C0 47.57 0 24.14 0 0 Z " fill="#030B17" transform="translate(1490,73)"/>
<path d="M0 0 C73.59 0 147.18 0 223 0 C223 0.33 223 0.66 223 1 C198.91 1 174.82 1 150 1 C150 24.43 150 47.86 150 72 C174.09 72 198.18 72 223 72 C223 72.66 223 73.32 223 74 C198.91 74 174.82 74 150 74 C150 97.43 150 120.86 150 145 C149.34 145 148.68 145 148 145 C148 121.57 148 98.14 148 74 C123.91 74 99.82 74 75 74 C75 97.43 75 120.86 75 145 C74.34 145 73.68 145 73 145 C73 121.57 73 98.14 73 74 C48.91 74 24.82 74 0 74 C0 73.34 0 72.68 0 72 C24.09 72 48.18 72 73 72 C73 48.57 73 25.14 73 1 C48.91 1 24.82 1 0 1 C0 0.67 0 0.34 0 0 Z M75 1 C75 24.43 75 47.86 75 72 C99.09 72 123.18 72 148 72 C148 48.57 148 25.14 148 1 C123.91 1 99.82 1 75 1 Z " fill="#0C1826" transform="translate(968,145)"/>
<path d="M0 0 C0.66 0 1.32 0 2 0 C2 23.76 2 47.52 2 72 C26.09 72 50.18 72 75 72 C75 48.24 75 24.48 75 0 C75.33 0 75.66 0 76 0 C77.05929727 15.56940081 77.11725282 31.08682332 77.0625 46.6875 C77.041875 55.040625 77.02125 63.39375 77 72 C101.09 72 125.18 72 150 72 C150 48.24 150 24.48 150 0 C150.66 0 151.32 0 152 0 C152 23.76 152 47.52 152 72 C166.52 72 181.04 72 196 72 C196 72.33 196 72.66 196 73 C181.48 73 166.96 73 152 73 C152 97.09 152 121.18 152 146 C151.34 146 150.68 146 150 146 C150 121.91 150 97.82 150 73 C125.91 73 101.82 73 77 73 C77 97.09 77 121.18 77 146 C76.34 146 75.68 146 75 146 C75 121.91 75 97.82 75 73 C50.91 73 26.82 73 2 73 C2 97.09 2 121.18 2 146 C1.34 146 0.68 146 0 146 C0 121.91 0 97.82 0 73 C-24.09 73 -48.18 73 -73 73 C-73 72.67 -73 72.34 -73 72 C-48.91 72 -24.82 72 0 72 C0 48.24 0 24.48 0 0 Z " fill="#0E1D2A" transform="translate(444,584)"/>
<path d="M0 0 C0.66 0 1.32 0 2 0 C2 23.43 2 46.86 2 71 C26.09 71 50.18 71 75 71 C75 47.57 75 24.14 75 0 C75.66 0 76.32 0 77 0 C77 23.1 77 46.2 77 70 C101.09 70 125.18 70 150 70 C150 70.66 150 71.32 150 72 C125.91 72 101.82 72 77 72 C77 95.43 77 118.86 77 143 C76.34 143 75.68 143 75 143 C75 119.57 75 96.14 75 72 C50.91 72 26.82 72 2 72 C2 95.43 2 118.86 2 143 C1.34 143 0.68 143 0 143 C0 95.81 0 48.62 0 0 Z " fill="#0D1926" transform="translate(1041,1)"/>
<path d="M0 0 C0.66 0 1.32 0 2 0 C2 23.76 2 47.52 2 72 C26.09 72 50.18 72 75 72 C75 72.33 75 72.66 75 73 C50.91 73 26.82 73 2 73 C2 97.09 2 121.18 2 146 C26.09 146 50.18 146 75 146 C75 146.33 75 146.66 75 147 C50.91 147 26.82 147 2 147 C2 170.76 2 194.52 2 219 C1.34 219 0.68 219 0 219 C0 195.24 0 171.48 0 147 C-24.09 147 -48.18 147 -73 147 C-73 146.67 -73 146.34 -73 146 C-48.91 146 -24.82 146 0 146 C0 121.91 0 97.82 0 73 C-24.09 73 -48.18 73 -73 73 C-73 72.67 -73 72.34 -73 72 C-48.91 72 -24.82 72 0 72 C0 48.24 0 24.48 0 0 Z " fill="#0E1B29" transform="translate(220,364)"/>
<path d="M0 0 C24.75 0 49.5 0 75 0 C75.33 23.43 75.66 46.86 76 71 C100.09 71.33 124.18 71.66 149 72 C149 72.66 149 73.32 149 74 C124.91 74 100.82 74 76 74 C76 97.43 76 120.86 76 145 C75.34 145 74.68 145 74 145 C74 121.57 74 98.14 74 74 C49.91 74 25.82 74 1 74 C1 97.43 1 120.86 1 145 C0.67 145 0.34 145 0 145 C0 97.15 0 49.3 0 0 Z M1 1 C1 24.43 1 47.86 1 72 C25.09 72 49.18 72 74 72 C74 48.57 74 25.14 74 1 C49.91 1 25.82 1 1 1 Z " fill="#0B1724" transform="translate(1266,145)"/>
<path d="M0 0 C48.84 0 97.68 0 148 0 C148 0.33 148 0.66 148 1 C123.91 1 99.82 1 75 1 C75 24.43 75 47.86 75 72 C99.09 72 123.18 72 148 72 C148 72.66 148 73.32 148 74 C123.91 74 99.82 74 75 74 C75 97.43 75 120.86 75 145 C74.34 145 73.68 145 73 145 C73 121.57 73 98.14 73 74 C48.91 74 24.82 74 0 74 C0 73.34 0 72.68 0 72 C24.09 72 48.18 72 73 72 C73 48.57 73 25.14 73 1 C48.91 1 24.82 1 0 1 C0 0.67 0 0.34 0 0 Z " fill="#0C1926" transform="translate(819,145)"/>
<path d="M0 0 C0.66 0 1.32 0 2 0 C2 23.76 2 47.52 2 72 C26.09 72 50.18 72 75 72 C75 72.33 75 72.66 75 73 C50.91 73 26.82 73 2 73 C2 97.09 2 121.18 2 146 C26.09 146 50.18 146 75 146 C75 146.33 75 146.66 75 147 C50.58 147 26.16 147 1 147 C1 170.76 1 194.52 1 219 C0.67 219 0.34 219 0 219 C0 195.24 0 171.48 0 147 C-24.09 147 -48.18 147 -73 147 C-73 146.67 -73 146.34 -73 146 C-48.91 146 -24.82 146 0 146 C0 121.91 0 97.82 0 73 C-23.76 73 -47.52 73 -72 73 C-72 72.67 -72 72.34 -72 72 C-48.24 72 -24.48 72 0 72 C0 48.24 0 24.48 0 0 Z " fill="#0F1C2A" transform="translate(892,364)"/>
<path d="M0 0 C0.33 0 0.66 0 1 0 C1 23.1 1 46.2 1 70 C25.42 70 49.84 70 75 70 C75 46.9 75 23.8 75 0 C75.33 0 75.66 0 76 0 C76 23.43 76 46.86 76 71 C51.58 71.33 27.16 71.66 2 72 C2 95.43 2 118.86 2 143 C1.34 143 0.68 143 0 143 C0 119.57 0 96.14 0 72 C-24.09 72 -48.18 72 -73 72 C-73 71.34 -73 70.68 -73 70 C-48.91 70 -24.82 70 0 70 C0 46.9 0 23.8 0 0 Z " fill="#0C1825" transform="translate(1265,1)"/>
<path d="M0 0 C0.33 0 0.66 0 1 0 C1 23.76 1 47.52 1 72 C16.18 72 31.36 72 47 72 C47 72.33 47 72.66 47 73 C31.82 73 16.64 73 1 73 C1 97.09 1 121.18 1 146 C15.85 146 30.7 146 46 146 C46 146.33 46 146.66 46 147 C31.15 147 16.3 147 1 147 C1 170.76 1 194.52 1 219 C0.67 219 0.34 219 0 219 C0 195.24 0 171.48 0 147 C-24.09 147 -48.18 147 -73 147 C-73 146.67 -73 146.34 -73 146 C-48.91 146 -24.82 146 0 146 C0 121.91 0 97.82 0 73 C-24.09 73 -48.18 73 -73 73 C-73 72.67 -73 72.34 -73 72 C-48.91 72 -24.82 72 0 72 C0 48.24 0 24.48 0 0 Z " fill="#111D2A" transform="translate(1489,364)"/>
<path d="M0 0 C0.33 0 0.66 0 1 0 C1 23.43 1 46.86 1 71 C16.18 71 31.36 71 47 71 C47 71.66 47 72.32 47 73 C32.15 73 17.3 73 2 73 C2 96.43 2 119.86 2 144 C1.34 144 0.68 144 0 144 C0 120.57 0 97.14 0 73 C-24.09 73 -48.18 73 -73 73 C-73 72.34 -73 71.68 -73 71 C-48.91 71 -24.82 71 0 71 C0 47.57 0 24.14 0 0 Z " fill="#0E1926" transform="translate(1489,146)"/>
<path d="M0 0 C0.66 0 1.32 0 2 0 C2 23.76 2 47.52 2 72 C26.09 72 50.18 72 75 72 C75 72.33 75 72.66 75 73 C50.91 73 26.82 73 2 73 C2 97.09 2 121.18 2 146 C1.34 146 0.68 146 0 146 C0 121.91 0 97.82 0 73 C-24.09 73 -48.18 73 -73 73 C-73 72.67 -73 72.34 -73 72 C-48.91 72 -24.82 72 0 72 C0 48.24 0 24.48 0 0 Z " fill="#0E1B29" transform="translate(220,731)"/>
<path d="M0 0 C0.33 0 0.66 0 1 0 C1 23.43 1 46.86 1 71 C25.42 71 49.84 71 75 71 C75 47.57 75 24.14 75 0 C75.33 0 75.66 0 76 0 C76 47.19 76 94.38 76 143 C75.67 143 75.34 143 75 143 C75 119.57 75 96.14 75 72 C50.58 72 26.16 72 1 72 C1 95.43 1 118.86 1 143 C0.67 143 0.34 143 0 143 C0 119.57 0 96.14 0 72 C-23.43 72 -46.86 72 -71 72 C-71 71.67 -71 71.34 -71 71 C-47.57 71 -24.14 71 0 71 C0 47.57 0 24.14 0 0 Z " fill="#14212F" transform="translate(71,1)"/>
<path d="M0 0 C0.66 0 1.32 0 2 0 C2 23.1 2 46.2 2 70 C25.76 70 49.52 70 74 70 C74 70.33 74 70.66 74 71 C50.24 71 26.48 71 2 71 C2 94.76 2 118.52 2 143 C1.34 143 0.68 143 0 143 C0 95.81 0 48.62 0 0 Z " fill="#0C1A27" transform="translate(892,1)"/>
<path d="M0 0 C0.33 0 0.66 0 1 0 C1 23.43 1 46.86 1 71 C16.18 71 31.36 71 47 71 C47 71.33 47 71.66 47 72 C32.15 72 17.3 72 2 72 C2 96.09 2 120.18 2 145 C1.34 145 0.68 145 0 145 C0 120.91 0 96.82 0 72 C-24.09 72 -48.18 72 -73 72 C-73 71.67 -73 71.34 -73 71 C-48.91 71 -24.82 71 0 71 C0 47.57 0 24.14 0 0 Z " fill="#101C29" transform="translate(1489,732)"/>
</svg>
